<?xml version="1.0" encoding="UTF-8"?>
<svg version="1.1" viewBox="0 0 115.55 121.86" xmlns="http://www.w3.org/2000/svg" xmlns:cc="http://creativecommons.org/ns#" xmlns:dc="http://purl.org/dc/elements/1.1/" xmlns:rdf="http://www.w3.org/1999/02/22-rdf-syntax-ns#"><metadata><rdf:RDF><cc:Work rdf:about=""><dc:format>image/svg+xml</dc:format><dc:type rdf:resource="http://purl.org/dc/dcmitype/StillImage"/><dc:title/></cc:Work></rdf:RDF></metadata><g transform="translate(-46.287 -91.393)"><path fill="white" d="m99.447 148.15c0 9.8218-5.6553 17.784-5.6553 17.784s-5.6553-7.9622-5.6553-17.784c1e-6 -9.8218 5.6553-17.784 5.6553-17.784s5.6553 7.9622 5.6553 17.784zm-53.159-56.753v111.8c19.259-4.1529 27.957 10.054 50.774 10.054 28.429 0 51.97-32.467 46.174-70.765-5.7958-38.297-56.771-42.384-66.197-17.322 21.625-20.295 44.851 0.31665 46.474 19.278s-9.4197 37.391-27.956 37.391c-26.239 0-36.548-21.886-36.49-35.647 0.17579-41.566 42.362-47.628 42.362-47.628h53.241v101.22l-10.09 0.18707s-1.4349 3.0796-5.92 6.8848l23.176 0.0935v-115.55zm80.432 43.199c1.8621 0.0692 3.6898 2.0144 4.3653 4.6458 0.78208 3.0463-0.23966 5.9409-2.2821 6.4651-2.0424 0.52425-1.6528-2.4911-2.4349-5.5374-0.78207-3.0463-2.4395-4.97-0.39708-5.4942 0.24225-0.0623 0.49301-0.0888 0.7487-0.0793zm1.4745 25.257c0.571-5e-3 1.1111 0.11072 1.6009 0.34261 2.6002 1.2316 3.2362 5.3986 1.4206 9.3074-1.8155 3.9087-5.395 6.0793-7.9954 4.8483-2.6004-1.2313-0.59085-4.3401 1.2247-8.2491 1.4275-3.0734 1.3655-6.2291 3.7491-6.2492zm-32.03 28.408c7.1687-6e-5 12.98 1.2503 12.98 6.0565-3e-5 4.8062-5.8114 8.7024-12.98 8.7023-7.1687 6e-5 -12.98-3.8961-12.98-8.7023 3e-5 -4.8062 5.8114-6.0565 12.98-6.0565z"/></g></svg>
